<?xml version="1.0" encoding="iso-8859-1"?>
<!-- Generator: Adobe Illustrator 16.0.0, SVG Export Plug-In . SVG Version: 6.00 Build 0)  -->
<!DOCTYPE svg PUBLIC "-//W3C//DTD SVG 1.1//EN" "http://www.w3.org/Graphics/SVG/1.1/DTD/svg11.dtd">
<svg version="1.1" id="Capa_1" xmlns="http://www.w3.org/2000/svg" xmlns:xlink="http://www.w3.org/1999/xlink" x="0px" y="0px"
	 width="895.1px" height="895.1px" viewBox="0 0 895.1 895.1" style="enable-background:new 0 0 895.1 895.1;" xml:space="preserve"
	>
<g>
	<g>
		<path d="M473.428,11.399c-13.9-15.2-37.8-15.2-51.701,0l-377,413c-20.5,22.5-4.6,58.7,25.8,58.7h67.4l29.5,379.7
			c1.4,18.2,16.6,32.3,34.9,32.3h489.9c18.3,0,33.601-14.199,34.9-32.5l27.7-379.6h69.699c30.4,0,46.4-36.201,25.801-58.701
			L473.428,11.399z M618.428,822c0,8.3-6.7,15-15,15h-312c-8.3,0-15-6.7-15-15V592.3c0-94.399,76.5-171.3,170.9-171.3h0.1
			c94.401,0,170.901,76.901,170.901,171.3V822H618.428z"/>
	</g>
</g>
<g>
</g>
<g>
</g>
<g>
</g>
<g>
</g>
<g>
</g>
<g>
</g>
<g>
</g>
<g>
</g>
<g>
</g>
<g>
</g>
<g>
</g>
<g>
</g>
<g>
</g>
<g>
</g>
<g>
</g>
</svg>
